# xmcd
#
# Track frame offsets:
#  150
#  17365
#  38194
#  67409
#  91211
#  110313
#  127700
#  152329
#  171247
#  192665
#  212328
#  240314
#  252852
#  270795
#  291198
#
# Disc length: 4095 seconds
#
# Revision: 0
# Processed by: cddbd v1.5.1PL2 Copyright (c) Steve Scherf et al.
# Submitted via: Collectorz.com_Music_Collector 6.9
#
DISCID=bd0ffd0f
DTITLE=Willie Walker - Willie Walker
DYEAR=1900
DGENRE=Blues - R&B/Soul
TTITLE0=Bad Influence
TTITLE1=Body And Fender Man
TTITLE2=One Foot In The Blues
TTITLE3=Spoonful
TTITLE4=I'll Be Around
TTITLE5=I'd Rather Drink Muddy Water
TTITLE6=You Send Me
TTITLE7=Feel Like Breaking Up
TTITLE8=Since I Fell For You
TTITLE9=I Can't Tell You Why
TTITLE10=If Nothing Changes
TTITLE11=Ain't No Mountain High Enough
TTITLE12=Neither One Of Us
TTITLE13=Caribbean Queen
TTITLE14=If You Don't Know Me By Now
EXTD=
EXTT0=
EXTT1=
EXTT2=
EXTT3=
EXTT4=
EXTT5=
EXTT6=
EXTT7=
EXTT8=
EXTT9=
EXTT10=
EXTT11=
EXTT12=
EXTT13=
EXTT14=
PLAYORDER=
